<svg id="Capa_1" data-name="Capa 1" xmlns="http://www.w3.org/2000/svg" viewBox="0 0 2357.28 464.52"><defs><style>.cls-1{font-size:32.75px;fill:#646466;font-family:NimbusSanL-Regu, NimbusSanL;}.cls-2{fill:#00244d;}.cls-3{fill:#00244b;}</style></defs><title>Reflow_Frontend</title><text class="cls-1" transform="translate(52.08 340.61)">Working<tspan x="16.37" y="39.3">Hours</tspan></text><text class="cls-1" transform="translate(365.94 340.61)">Wood</text><text class="cls-1" transform="translate(617.97 340.61)">Plastic</text><text class="cls-1" transform="translate(869.6 340.61)">Textile</text><text class="cls-1" transform="translate(1083.71 340.61)">Storage</text><text class="cls-1" transform="translate(1332.98 340.61)">Machine</text><text class="cls-1" transform="translate(1573.32 340.61)">Consumption<tspan x="61.89" y="39.3">Rate</tspan></text><text class="cls-1" transform="translate(2141.31 340.61)">External<tspan x="-10.03" y="39.3">Database</tspan></text><text class="cls-1" transform="translate(1899.58 340.61)">Reflow<tspan x="-20.04" y="39.3">Database</tspan></text><path class="cls-2" d="M1474.12,188.07h-73.77v-5.63l-39.63-41.69V100.19h28.38a22.41,22.41,0,0,0,2.36,6.63v41.49H1400v18.75h22.45v-9.38h26.68v16.55h6.19V151.48H1422.4v-3.17h8.48V106.82a22.45,22.45,0,0,0,2.37-6.63H1444a3.13,3.13,0,0,0,3.13-3.13V67.17A3.13,3.13,0,0,0,1444,64H1334a3.13,3.13,0,0,0-3.13,3.13v166.7A3.14,3.14,0,0,0,1334,237h63.2a3.14,3.14,0,0,0,3.13-3.14v-7.75h48.73V237H1478V225.85a19,19,0,0,0,15.63-22.11C1492,194.51,1483.49,188.07,1474.12,188.07ZM1397.67,114a22.36,22.36,0,0,0,27,0v28.16h-27Zm13.5-1.65a16.3,16.3,0,1,1,16.3-16.3A16.32,16.32,0,0,1,1411.17,112.3Zm-17,72.61v42.77a3.13,3.13,0,0,1-3.14,3.13h-50.8a3.14,3.14,0,0,1-3.14-3.13V73.37a3.14,3.14,0,0,1,3.14-3.13h97.57a3.14,3.14,0,0,1,3.14,3.13V90.86a3.15,3.15,0,0,1-3.14,3.14h-4.24a22.47,22.47,0,0,0-44.76,0h-34.27v49.23Zm12-24V148.31h10.06v12.55Zm25.7,46.24a4.07,4.07,0,1,1,4.07,4.07A4.07,4.07,0,0,1,1431.84,207.1Zm-31.49,3.1h25.8a10.29,10.29,0,1,0,0-6.2h-25.81v-9.73h74.52a12.83,12.83,0,1,1,0,25.65h-74.52Zm71.42,15.92v4.69h-16.49v-4.69Z"/><path class="cls-2" d="M441.39,212.83V187.3c-2.44-.33-4.33,4-6,2.55v23c0,17-14.74,30.87-32.93,30.87s-32.92-13.82-32.92-30.87V106.2a3,3,0,0,0-6,0V212.83c0,20.15,17.42,36.48,38.91,36.48S441.39,233,441.39,212.83Z"/><path class="cls-2" d="M441.39,159.37V106.2a3,3,0,0,0-6,0v50.85A9.06,9.06,0,0,1,441.39,159.37Z"/><path class="cls-2" d="M387.52,187.58v25.25a3,3,0,0,1-6,0V187.58a3,3,0,0,1,6,0Z"/><path class="cls-2" d="M414.45,195.07v15a3,3,0,0,1-6,0v-15a3,3,0,0,1,6,0Z"/><path class="cls-2" d="M402.48,153.9v33.68a3,3,0,0,1-6,0V153.9a3,3,0,0,1,6,0Z"/><path class="cls-2" d="M427.89,199.4a2.57,2.57,0,0,1-.18-3.79l25.16-23a3,3,0,0,1,4.05.18,2.58,2.58,0,0,1,.17,3.8l-25.16,23A3,3,0,0,1,427.89,199.4Z"/><path class="cls-2" d="M417.86,176.59a2.68,2.68,0,0,1,0-4L438,153.77a3.16,3.16,0,0,1,4.24,0c1.17,1.1,3.88.42,2.71,1.51l-22.82,21.31A3.12,3.12,0,0,1,417.86,176.59Z"/><path class="cls-2" d="M441.39,106.2c0,20.15-17.42,36.48-38.91,36.48s-38.91-16.33-38.91-36.48S381,69.72,402.48,69.72,441.39,86.05,441.39,106.2Zm-71.83,0c0,17,14.74,30.87,32.92,30.87s32.93-13.82,32.93-30.87-14.74-30.87-32.93-30.87S369.56,89.15,369.56,106.2Z"/><path class="cls-2" d="M429.42,106.2c0,14-12.06,25.25-26.94,25.25s-26.94-11.3-26.94-25.25,12.06-25.26,26.94-25.26S429.42,92.25,429.42,106.2Zm-47.89,0c0,10.85,9.38,19.64,21,19.64s20.95-8.79,20.95-19.64-9.38-19.64-20.95-19.64S381.53,95.35,381.53,106.2Z"/><path class="cls-2" d="M417.45,106.2c0,7.75-6.7,14-15,14s-15-6.28-15-14,6.7-14,15-14S417.45,98.45,417.45,106.2Zm-23.95,0a9,9,0,1,0,9-8.42A8.71,8.71,0,0,0,393.5,106.2Z"/><path class="cls-2" d="M450.42,178.61c-4.15-.36-8.65-3.12-11.82-7.65-2.75-3.93-3.92-8.5-3.15-12.22a8.66,8.66,0,0,1,3.89-5.72c5-3.07,12.64-.23,17.31,6.46,2.75,3.92,3.92,8.49,3.14,12.21a8.65,8.65,0,0,1-3.88,5.73A9,9,0,0,1,450.42,178.61Zm-6.15-20.26a2.42,2.42,0,0,0-1.51.26h0a2.11,2.11,0,0,0-.89,1.48c-.32,1.52.06,4.2,2.1,7.12,2.94,4.2,7,5.55,8.52,4.61a2.08,2.08,0,0,0,.89-1.47c.32-1.53-.06-4.21-2.1-7.12C449.06,160.06,446.2,158.51,444.27,158.35Z"/><path class="cls-2" d="M699.87,97.15V96.1a.26.26,0,0,0-.27-.26c0-.26-.26-.26-.26-.52h0l-27.4-23.49V51.73H639.05v20.1l-27.4,23.49h0c-.26,0-.26.26-.26.52l-.27.26v1.05h0v137a15.15,15.15,0,0,0,15.14,15.14H685a15.15,15.15,0,0,0,15.14-15.14v-85.6l-.26-51.42Zm-5.22,1.3v19.84c-.53-.26-1-.26-1.31-.52-7.83-2.61-15.4-5-24.53-3.92-5.48.52-10.44,2.09-15.66,3.4a101.21,101.21,0,0,1-11.23,2.61,47,47,0,0,1-26.1-2.88V98.45l26.89-22.7h25ZM666.2,70.27H644.27V57H666.2Zm28.45,163.9a9.92,9.92,0,0,1-9.92,9.92h-59a9.92,9.92,0,0,1-9.92-9.92V214.86h56.12a2.61,2.61,0,0,0,0-5.22H615.82V183.8h56.12a2.61,2.61,0,0,0,0-5.22H615.82v-27.4h15.66a2.61,2.61,0,1,0,0-5.22H615.82V122.47a52.49,52.49,0,0,0,18,3.13,50.37,50.37,0,0,0,8.88-.79c3.91-.78,7.83-1.82,11.74-2.87a101.11,101.11,0,0,1,14.88-3.13c7.83-.78,14.88,1.31,22.18,3.66,1,.26,1.83.52,2.87.78v22.44H678.72a2.61,2.61,0,0,0,0,5.22h15.66v83.26Z"/><path class="cls-2" d="M685,250.13H626.26a16,16,0,0,1-16-16V95.77l.28-.29a1.05,1.05,0,0,1,.68-.92l27-23.11V50.92h34.53V71.45l27.4,23.49v.18a.76.76,0,0,1,.08.11,1,1,0,0,1,.44.88v1l.26,51.41v85.61A16,16,0,0,1,685,250.13Zm-73-153.69V234.17a14.34,14.34,0,0,0,14.32,14.32H685a14.34,14.34,0,0,0,14.32-14.32v-85.6l-.26-51.91h-.26V96a1.06,1.06,0,0,1-.17-.26l-27.5-23.57V52.55H639.87V72.21l-.29.24L612.21,96Zm72.79,148.47h-59A10.75,10.75,0,0,1,615,234.17V214h56.94a1.66,1.66,0,0,0,1.79-1.79,1.65,1.65,0,0,0-1.79-1.79H615V183h56.94a1.79,1.79,0,0,0,0-3.58H615v-29h16.48a1.8,1.8,0,0,0,0-3.59H615V121.29l1.1.4a51.63,51.63,0,0,0,17.73,3.09,49.82,49.82,0,0,0,8.73-.77c3.83-.77,7.75-1.81,11.54-2.82A102.89,102.89,0,0,1,669.24,118c7.79-.77,14.81,1.21,22.52,3.68l1.42.39c.45.13.89.26,1.4.39l.62.15v23.9H678.72a1.66,1.66,0,0,0-1.79,1.79,1.64,1.64,0,0,0,1.79,1.79H695.2v83.27h.26v.81A10.75,10.75,0,0,1,684.73,244.91Zm-68.09-29.23v18.49a9.11,9.11,0,0,0,9.1,9.1h59a9.11,9.11,0,0,0,9.06-8.28h-.23V151.73H678.72a3.43,3.43,0,0,1,0-6.86h14.84v-21l-.83-.23c-.45-.13-.9-.26-1.42-.39-7.85-2.52-14.42-4.39-21.9-3.63a99.58,99.58,0,0,0-14.75,3.11c-3.95,1.05-7.9,2.1-11.79,2.88a52.68,52.68,0,0,1-9,.79,53.61,53.61,0,0,1-17.19-2.79v21.52h14.84a3.43,3.43,0,1,1,0,6.85H616.64v25.77h55.3a3.43,3.43,0,0,1,0,6.86h-55.3v24.2h55.3a3.43,3.43,0,0,1,0,6.86Zm17.19-94.28a47.58,47.58,0,0,1-18.32-3.66l-.51-.21V98.07l27.41-23.14h25.65l.23.19,27.17,22.95v21.54l-1.18-.59a3.23,3.23,0,0,0-.52-.18,2.6,2.6,0,0,1-.82-.34c-8.34-2.78-15.43-4.81-24-3.84a74.63,74.63,0,0,0-12.15,2.5l-3.41.88-1.41.38a85,85,0,0,1-9.89,2.24A44.93,44.93,0,0,1,633.83,121.4Zm-17.19-5a46.5,46.5,0,0,0,25.14,2.61,83.68,83.68,0,0,0,9.73-2.21l1.42-.38,3.4-.88a75.84,75.84,0,0,1,12.4-2.54c9-1,16.27,1.08,24.87,3.95l.23.11V98.83L667.46,76.56H643L616.64,98.83ZM667,71.08H643.45V56.13H667Zm-21.92-1.63h20.29V57.77H645.09Z"/><path class="cls-2" d="M644.27,95.84a2.61,2.61,0,0,0,0,5.22h22.19a2.61,2.61,0,1,0,0-5.22Z"/><path class="cls-2" d="M666.46,101.88H644.27a3.43,3.43,0,1,1,0-6.86h22.19a3.43,3.43,0,0,1,0,6.86Zm-22.19-5.22a1.79,1.79,0,1,0,0,3.58h22.19a1.79,1.79,0,0,0,0-3.58Z"/><path class="cls-2" d="M1116,180.45H1083.2V147.68H1116Zm-26.21-6.55h19.66V154.23h-19.66Z"/><path class="cls-2" d="M1144.33,237.18h-83.09a6.41,6.41,0,0,1-6.41-6.4V154.09a6.41,6.41,0,0,1,6.41-6.41h83.09Zm-83.09-83,.14,76.55,76.4-.14V154.23Z"/><path class="cls-2" d="M1198.92,180.45h-32.77V147.68h32.77Zm-26.22-6.55h19.67V154.23H1172.7Z"/><path class="cls-2" d="M1220.87,237.18h-83.09v-89.5h83.09a6.42,6.42,0,0,1,6.42,6.41v76.69A6.42,6.42,0,0,1,1220.87,237.18Zm-76.54-6.55h76.54l-.13-76.4h-76.41Z"/><path class="cls-2" d="M1157.44,96.63h-32.77V63.86h32.77Zm-26.22-6.55h19.67V70.41h-19.67Z"/><path class="cls-2" d="M1185.81,153.37h-89.5V70.27a6.42,6.42,0,0,1,6.41-6.41h76.68a6.42,6.42,0,0,1,6.41,6.41Zm-83-6.55h76.41V70.41h-76.54Z"/><path class="cls-2" d="M1700.43,128.9a3.31,3.31,0,0,0-4.68,0h0l-67.15,67.32a3.31,3.31,0,0,0,4.69,4.68l67.14-67.33a3.31,3.31,0,0,0,0-4.68"/><path class="cls-2" d="M1642,159.57a17.64,17.64,0,1,0-17.64-17.64A17.64,17.64,0,0,0,1642,159.57m0-29.4a11.77,11.77,0,1,1-11.76,11.76A11.77,11.77,0,0,1,1642,130.17"/><path class="cls-2" d="M1687.45,170.6a17.65,17.65,0,1,0,17.63,17.65,17.65,17.65,0,0,0-17.63-17.65m0,29.41a11.77,11.77,0,1,1,11.76-11.76A11.77,11.77,0,0,1,1687.45,200"/><path class="cls-2" d="M1725.5,234.33H1603.91a6.41,6.41,0,0,1-6.41-6.41V73.13a6.42,6.42,0,0,1,6.41-6.42H1687l44.88,42.37V227.92A6.42,6.42,0,0,1,1725.5,234.33ZM1603.91,73.26l.14,154.66,121.45-.14-.13-115.87-40.94-38.65Z"/><path class="cls-2" d="M1728.64,113.77h-39.77a6.42,6.42,0,0,1-6.41-6.41V70H1689v37.37l39.63-.14Z"/><path class="cls-2" d="M2221.35,100.39l-17.69-17.21a1.06,1.06,0,0,0-1.49,0l-17.39,17.52a1.06,1.06,0,0,0,0,1.5l4,4a1.06,1.06,0,0,0,1.5,0l8.47-8.62v50.16h7.75V97.21l9.39,8.71a1.06,1.06,0,0,0,1.5,0l3.95-4a1.06,1.06,0,0,0,0-1.5"/><path class="cls-2" d="M1949.63,120.68c-32.08,0-66.18-8.88-66.18-25.34S1917.55,70,1949.63,70s66.18,8.88,66.18,25.35S1981.71,120.68,1949.63,120.68Zm0-45.29c-35.82,0-60.78,10.51-60.78,20s25,19.94,60.78,19.94,60.78-10.51,60.78-19.94S1985.45,75.39,1949.63,75.39Z"/><path class="cls-2" d="M1949.63,149.1c-32.08,0-66.18-8.88-66.18-25.35V95.34a2.7,2.7,0,1,1,5.4,0v28.42c0,9.43,25,19.94,60.78,19.94s60.78-10.51,60.78-19.94V95.34a2.7,2.7,0,0,1,5.4,0v28.42C2015.81,140.22,1981.71,149.1,1949.63,149.1Z"/><path class="cls-2" d="M1949.63,179.63c-32.08,0-66.18-8.88-66.18-25.35V124.64a2.7,2.7,0,0,1,2.7-2.7,2.74,2.74,0,0,1,2.74,2.7,3,3,0,0,1,0,.42v29.22c0,9.44,25,19.95,60.78,19.95s60.78-10.51,60.78-19.95V125.05a2.73,2.73,0,0,1,0-.41,2.67,2.67,0,0,1,2.67-2.7,2.75,2.75,0,0,1,2.76,2.7v29.64C2015.81,170.75,1981.71,179.63,1949.63,179.63Z"/><path class="cls-2" d="M1949.63,208.6c-32.08,0-66.18-8.88-66.18-25.35v-29a2.7,2.7,0,1,1,5.4,0v29c0,9.44,25,19.95,60.78,19.95s60.78-10.51,60.78-19.95v-29a2.7,2.7,0,0,1,5.4,0v29C2015.81,199.72,1981.71,208.6,1949.63,208.6Z"/><path class="cls-2" d="M1949.63,237.46c-32.08,0-66.18-8.88-66.18-25.34V183.25a2.7,2.7,0,1,1,5.4,0v28.87c0,9.43,25,19.94,60.78,19.94s60.78-10.51,60.78-19.94V183.25a2.7,2.7,0,0,1,5.4,0v28.87C2015.81,228.58,1981.71,237.46,1949.63,237.46Z"/><path class="cls-2" d="M2192.51,120.46c-29.19-1.47-57.31-10.17-57.31-25.12,0-16.47,34.1-25.35,66.18-25.35s66.18,8.88,66.18,25.35c0,14.68-27.11,23.33-55.73,25l-.3-5.38c30.3-1.75,50.63-11.14,50.63-19.65,0-9.44-25-20-60.78-20s-60.77,10.51-60.77,20c0,8.63,20.89,18.16,51.88,19.72Z"/><path class="cls-2" d="M2140.61,123.76V95.34a2.71,2.71,0,0,0-5.41,0v28.41c0,15.21,29.1,23.95,58.83,25.19v-5.4C2162.2,142.22,2140.61,132.53,2140.61,123.76Z"/><path class="cls-2" d="M2264.86,92.64a2.7,2.7,0,0,0-2.7,2.7v28.42c0,8.31-19.38,17.44-48.48,19.5v5.41c27.93-2,53.88-10.55,53.88-24.91V95.34A2.7,2.7,0,0,0,2264.86,92.64Z"/><path class="cls-2" d="M2201.38,179.63c-32.08,0-66.18-8.88-66.18-25.35V124.64a2.7,2.7,0,0,1,2.7-2.7,2.73,2.73,0,0,1,2.74,2.7,3,3,0,0,1,0,.42v29.22c0,9.44,25,19.95,60.77,19.95s60.78-10.51,60.78-19.95V125.05a2.73,2.73,0,0,1,0-.41,2.68,2.68,0,0,1,2.67-2.7,2.75,2.75,0,0,1,2.76,2.7v29.64C2267.56,170.75,2233.46,179.63,2201.38,179.63Z"/><path class="cls-2" d="M2201.38,208.6c-32.08,0-66.18-8.88-66.18-25.35v-29a2.71,2.71,0,0,1,5.41,0v29c0,9.44,25,19.95,60.77,19.95s60.78-10.51,60.78-19.95v-29a2.7,2.7,0,1,1,5.4,0v29C2267.56,199.72,2233.46,208.6,2201.38,208.6Z"/><path class="cls-2" d="M2201.38,237.46c-32.08,0-66.18-8.88-66.18-25.34V183.25a2.71,2.71,0,0,1,5.41,0v28.87c0,9.43,25,19.94,60.77,19.94s60.78-10.51,60.78-19.94V183.25a2.7,2.7,0,1,1,5.4,0v28.87C2267.56,228.58,2233.46,237.46,2201.38,237.46Z"/><path class="cls-2" d="M973.32,184.11a12.33,12.33,0,0,0,8.75,3.65h0a12.25,12.25,0,0,0,8.72-3.61l.83-.82a12.51,12.51,0,0,0,0-17.61l-11.08-11.09,11.08-11.19a12.52,12.52,0,0,0,0-17.6l-.77-.77A12.41,12.41,0,0,0,973.4,125l-.09.09-11.06,11.13-6.35-6.35L967,118.76a12.5,12.5,0,0,0,0-17.6l-.77-.77a12.35,12.35,0,0,0-8.77-3.65h0a12.34,12.34,0,0,0-8.76,3.63l-11.09,11.12-6.35-6.35L942.3,94a12.52,12.52,0,0,0,0-17.6l-.74-.85a12.41,12.41,0,0,0-17.46,0l-.08.08L912.94,86.75,901.86,75.61a12.42,12.42,0,0,0-17.48-.07l-.11.1-.72.74a12.53,12.53,0,0,0,0,17.61l11.07,11.1-6.34,6.34-11.07-11.12a12.43,12.43,0,0,0-17.49-.08l-.06.11-.09,0-.7.71a12.5,12.5,0,0,0,0,17.6L870,129.86l-6.34,6.34-11.07-11.09a12.4,12.4,0,0,0-17.52-.06l-.81.79a12.51,12.51,0,0,0,0,17.6l11.08,11.1-11.08,11.11a12.51,12.51,0,0,0-3.63,8.82h0a12.48,12.48,0,0,0,3.62,8.8l.78.77a12.3,12.3,0,0,0,8.75,3.66h0a12.26,12.26,0,0,0,8.73-3.61L863.64,173l6.34,6.34-11.09,11.16a12.49,12.49,0,0,0,0,17.62l.77.77a12.28,12.28,0,0,0,8.76,3.64h0a12.3,12.3,0,0,0,8.76-3.62l11.1-11.12,6.34,6.35-11.08,11.09a12.54,12.54,0,0,0,0,17.6l.78.78a12.42,12.42,0,0,0,17.48.08l0,0,.13-.1,11-11.13L924,233.46a12.43,12.43,0,0,0,17.55,0l.79-.79a12.55,12.55,0,0,0,0-17.61L931.28,204l6.34-6.34,11.08,11.09a12.33,12.33,0,0,0,8.77,3.65h0a12.33,12.33,0,0,0,8.75-3.62l.79-.8a12.49,12.49,0,0,0,0-17.62L956,179.25l6.34-6.34ZM987,170.31a5.9,5.9,0,0,1,0,8.31l-.77.77a6,6,0,0,1-8.22,0l-11.18-11.13,9.09-9ZM953.29,105a5.87,5.87,0,0,1,8.22,0l.78.77a5.92,5.92,0,0,1,0,8.32l-11.08,11.1-9.07-9.09Zm4.32,35.82L948.54,150l-.35-.35-30.62-30.75,9.08-9.09.35.35ZM902,174.62l-9.08-9,31-31.16,9.07,9.09Zm11-1.69,6.34,6.34-6.34,6.34-6.34-6.34Zm-24.64-12L882,154.56l6.34-6.35,6.35,6.35Zm24.64-24.7-6.34-6.34,6.34-6.34,6.34,6.34Zm24.65,12,6.33,6.34-6.33,6.34-6.35-6.34ZM888.13,89.37a5.92,5.92,0,0,1,0-8.31l.74-.77a5.85,5.85,0,0,1,8.23,0l11.08,11.1-8.94,9.06Zm5.13,26.38L928.6,80.28a5.85,5.85,0,0,1,8.22,0l.77.78a5.9,5.9,0,0,1,0,8.31L902,125.19l-9.08-9.09Zm-29.74-1.66a5.9,5.9,0,0,1,0-8.31l.77-.78a5.91,5.91,0,0,1,8.22,0l35.8,35.82-9.07,9.08-.35-.35Zm-24.64,24.72a5.9,5.9,0,0,1,0-8.32l.77-.77a5.87,5.87,0,0,1,8.22,0l11.18,11.09L850,149.9Zm9,40.58a6,6,0,0,1-8.21,0l-.78-.79a5.89,5.89,0,0,1-.7-7.47h-.14l.78-.84,35.72-35.84.34.35,8.73,8.74-.35.35Zm24.66,24.72a5.87,5.87,0,0,1-8.22,0l-.78-.77a5.93,5.93,0,0,1,0-8.32l11.08-11.09,9.08,9.08Zm-4.32-35.83,9.08-9,31,31-9.07,9.08Zm69.49,51.46a5.9,5.9,0,0,1,0,8.33l-.8.8a5.88,5.88,0,0,1-8.21,0l-11.08-11.1,9.07-9.09Zm-5.13-26.38-35.34,35.47a5.92,5.92,0,0,1-8.22,0l-.9-.7a5.9,5.9,0,0,1,0-8.35l35.77-35.85L933,193ZM962.37,195a5.92,5.92,0,0,1,0,8.32l-.78.77a5.86,5.86,0,0,1-8.22,0l-35.8-35.84,9.08-9Zm-11.08-20.4-9.07-9L978,129.72a5.89,5.89,0,0,1,8.21,0l.78.77a5.92,5.92,0,0,1,0,8.32Z"/><path class="cls-2" d="M115.14,59.32a90.05,90.05,0,1,0,90.05,90.05,90.06,90.06,0,0,0-90-90.05m44.57,161.26-10.46-18.12-5.19,3,10.46,18.13a83.64,83.64,0,0,1-36.38,9.75V212.41h-6v20.94a83.67,83.67,0,0,1-36.38-9.75l10.47-18.13-5.2-3L70.56,220.58A84.84,84.84,0,0,1,43.93,194L62,183.49l-3-5.2L40.92,188.76a83.42,83.42,0,0,1-9.76-36.39H52.1v-6H31.16A83.42,83.42,0,0,1,40.92,110L59,120.45l3-5.2L43.93,104.79A84.71,84.71,0,0,1,70.56,78.17L81,96.28l5.2-3L75.75,75.15a83.69,83.69,0,0,1,36.38-9.76V86.33h6V65.39a83.65,83.65,0,0,1,36.38,9.76L144.06,93.28l5.19,3,10.46-18.11a84.5,84.5,0,0,1,26.63,26.62l-18.11,10.46,3,5.2L189.36,110a83.54,83.54,0,0,1,9.75,36.39H178.17v6h20.94a83.54,83.54,0,0,1-9.75,36.39l-18.13-10.47-3,5.2L186.34,194a84.64,84.64,0,0,1-26.63,26.63"/><path class="cls-3" d="M87.17,188.66a11.29,11.29,0,0,1-8-3.31l-.25-.26a11.32,11.32,0,0,1,.24-15.75l31.56-31.55a20.92,20.92,0,0,1,2.66-16.85,22.86,22.86,0,0,1,7.47-7.46,21,21,0,0,1,18.87-2l4.85,1.75-12.88,12.88v6.74h6.74L151.3,120l1.76,4.84a21,21,0,0,1-2,18.88,22.92,22.92,0,0,1-7.46,7.46,20.85,20.85,0,0,1-16.84,2.66L95.17,185.35A11.32,11.32,0,0,1,87.17,188.66Zm-3.26-7.84a4.77,4.77,0,0,0,6.63-.1L125,146.29l2,.7a14.34,14.34,0,0,0,13.22-1.44,16.33,16.33,0,0,0,5.31-5.31,15.07,15.07,0,0,0,2.43-7.61l-6.73,6.74h-16v-16l6.74-6.74a15.07,15.07,0,0,0-7.61,2.43,16.23,16.23,0,0,0-5.31,5.31,14.31,14.31,0,0,0-1.44,13.22l.7,2L83.79,174a4.78,4.78,0,0,0,0,6.74Z"/></svg>