<svg id="Capa_1" data-name="Capa 1" xmlns="http://www.w3.org/2000/svg" viewBox="0 0 41.04 51.18"><defs><style>.cls-1{fill:#00244d;}</style></defs><title>Reflow_Frontend</title><path class="cls-1" d="M31.43,19A1,1,0,0,0,30,19h0L9.5,39.55A1,1,0,1,0,10.93,41l20.5-20.55a1,1,0,0,0,0-1.43"/><path class="cls-1" d="M13.58,28.35A5.39,5.39,0,1,0,8.19,23a5.39,5.39,0,0,0,5.39,5.38m0-9A3.59,3.59,0,1,1,10,23a3.59,3.59,0,0,1,3.59-3.59"/><path class="cls-1" d="M27.47,31.72a5.39,5.39,0,1,0,5.38,5.39,5.39,5.39,0,0,0-5.38-5.39m0,9a3.59,3.59,0,1,1,3.59-3.59,3.6,3.6,0,0,1-3.59,3.59"/><path class="cls-1" d="M39.09,51.18H2a2,2,0,0,1-2-2V2A2,2,0,0,1,2,0H27.34L41,12.94V49.22A2,2,0,0,1,39.09,51.18ZM2,2,2,49.22l37.09,0,0-35.38L26.55,2Z"/><path class="cls-1" d="M40,14.37H27.9a2,2,0,0,1-2-2V1h2V12.41l12.1,0Z"/></svg>