<svg id="Capa_1" data-name="Capa 1" xmlns="http://www.w3.org/2000/svg" viewBox="0 0 40.42 51.14"><defs><style>.cls-1{fill:#00244d;}</style></defs><title>Reflow_Frontend</title><path class="cls-1" d="M20.21,15.48C10.41,15.48,0,12.77,0,7.74S10.41,0,20.21,0,40.42,2.71,40.42,7.74,30,15.48,20.21,15.48Zm0-13.83C9.27,1.65,1.65,4.86,1.65,7.74s7.62,6.09,18.56,6.09,18.56-3.21,18.56-6.09S31.14,1.65,20.21,1.65Z"/><path class="cls-1" d="M20.21,24.16C10.41,24.16,0,21.44,0,16.42V7.74a.82.82,0,0,1,.82-.82.82.82,0,0,1,.83.82v8.68c0,2.88,7.62,6.09,18.56,6.09s18.56-3.21,18.56-6.09V7.74a.83.83,0,0,1,1.65,0v8.68C40.42,21.44,30,24.16,20.21,24.16Z"/><path class="cls-1" d="M20.21,33.48C10.41,33.48,0,30.77,0,25.74v-9a.83.83,0,0,1,.82-.83.84.84,0,0,1,.84.83.62.62,0,0,1,0,.13v8.92c0,2.88,7.62,6.09,18.56,6.09s18.56-3.21,18.56-6.09V16.81a.49.49,0,0,1,0-.12.82.82,0,0,1,.81-.83.85.85,0,0,1,.85.83v9C40.42,30.77,30,33.48,20.21,33.48Z"/><path class="cls-1" d="M20.21,42.32C10.41,42.32,0,39.61,0,34.59V25.74a.83.83,0,1,1,1.65,0v8.85c0,2.88,7.62,6.09,18.56,6.09s18.56-3.21,18.56-6.09V25.74a.83.83,0,1,1,1.65,0v8.85C40.42,39.61,30,42.32,20.21,42.32Z"/><path class="cls-1" d="M20.21,51.14C10.41,51.14,0,48.43,0,43.4V34.59a.83.83,0,1,1,1.65,0V43.4c0,2.88,7.62,6.09,18.56,6.09s18.56-3.21,18.56-6.09V34.59a.83.83,0,1,1,1.65,0V43.4C40.42,48.43,30,51.14,20.21,51.14Z"/></svg>