<svg id="Capa_1" data-name="Capa 1" xmlns="http://www.w3.org/2000/svg" viewBox="0 0 40.42 51.14"><defs><style>.cls-1{fill:#00244d;}</style></defs><title>Reflow_Frontend</title><path class="cls-1" d="M26.31,9.28,20.9,4a.31.31,0,0,0-.45,0L15.14,9.38a.32.32,0,0,0,0,.46l1.23,1.21a.33.33,0,0,0,.46,0l2.58-2.63V23.73h2.37V8.31L24.65,11a.31.31,0,0,0,.45,0l1.21-1.23a.34.34,0,0,0,0-.46"/><path class="cls-1" d="M17.5,15.41C8.59,15,0,12.3,0,7.74,0,2.71,10.41,0,20.21,0S40.42,2.71,40.42,7.74c0,4.48-8.28,7.12-17,7.64l-.09-1.64c9.25-.53,15.46-3.4,15.46-6,0-2.88-7.63-6.09-18.56-6.09S1.65,4.86,1.65,7.74c0,2.64,6.38,5.55,15.84,6Z"/><path class="cls-1" d="M1.65,16.42V7.74a.82.82,0,0,0-.83-.82A.82.82,0,0,0,0,7.74v8.68c0,4.64,8.89,7.31,18,7.69V22.46C8.24,22.06,1.65,19.1,1.65,16.42Z"/><path class="cls-1" d="M39.59,6.92a.82.82,0,0,0-.82.82v8.68c0,2.53-5.92,5.32-14.81,5.95V24c8.53-.59,16.46-3.22,16.46-7.6V7.74A.82.82,0,0,0,39.59,6.92Z"/><path class="cls-1" d="M20.21,33.48C10.41,33.48,0,30.77,0,25.74v-9a.83.83,0,0,1,.82-.83.84.84,0,0,1,.84.83.62.62,0,0,1,0,.13v8.92c0,2.88,7.62,6.09,18.56,6.09s18.56-3.21,18.56-6.09V16.81a.49.49,0,0,1,0-.12.82.82,0,0,1,.81-.83.85.85,0,0,1,.85.83v9C40.42,30.77,30,33.48,20.21,33.48Z"/><path class="cls-1" d="M20.21,42.32C10.41,42.32,0,39.61,0,34.59V25.74a.83.83,0,1,1,1.65,0v8.85c0,2.88,7.62,6.09,18.56,6.09s18.56-3.21,18.56-6.09V25.74a.83.83,0,1,1,1.65,0v8.85C40.42,39.61,30,42.32,20.21,42.32Z"/><path class="cls-1" d="M20.21,51.14C10.41,51.14,0,48.43,0,43.4V34.59a.83.83,0,1,1,1.65,0V43.4c0,2.88,7.62,6.09,18.56,6.09s18.56-3.21,18.56-6.09V34.59a.83.83,0,1,1,1.65,0V43.4C40.42,48.43,30,51.14,20.21,51.14Z"/></svg>