<svg id="Capa_1" data-name="Capa 1" xmlns="http://www.w3.org/2000/svg" viewBox="0 0 49.77 52.82"><defs><style>.cls-1{fill:#00244d;}</style></defs><title>Reflow_Frontend</title><path class="cls-1" d="M43.74,37.87H21.21V36.15L9.11,23.42V11h8.66a6.69,6.69,0,0,0,.73,2V25.73h2.59v5.73h6.85V28.59h8.15v5.06H38V26.7h-10v-1h2.59V13.06a6.89,6.89,0,0,0,.73-2h3.28a1,1,0,0,0,1-1V1a1,1,0,0,0-1-1H1A1,1,0,0,0,0,1v50.9a1,1,0,0,0,1,1H20.25a1,1,0,0,0,1-1V49.49H36.09v3.33h8.82V49.41a5.82,5.82,0,0,0,4.78-6.75A6,6,0,0,0,43.74,37.87ZM20.39,15.24a6.82,6.82,0,0,0,8.25,0v8.6H20.39Zm4.12-.5a5,5,0,1,1,5-5A5,5,0,0,1,24.51,14.74ZM19.32,36.91V50a1,1,0,0,1-1,1H2.85a1,1,0,0,1-1-1V2.85a1,1,0,0,1,1-1H32.64a1,1,0,0,1,1,1V8.19a1,1,0,0,1-1,1H31.35a6.86,6.86,0,0,0-13.67,0H7.22v15ZM23,29.57V25.73h3.07v3.84Zm7.85,14.11a1.24,1.24,0,1,1,1.24,1.25A1.24,1.24,0,0,1,30.83,43.68Zm-9.62,1h7.88a3.14,3.14,0,1,0,0-1.89H21.21v-3H44a3.92,3.92,0,1,1,0,7.83H21.21ZM43,49.49v1.43H38V49.49Z"/></svg>