<svg id="Capa_1" data-name="Capa 1" xmlns="http://www.w3.org/2000/svg" viewBox="0 0 27.68 60.83"><defs><style>.cls-1{fill:#00244d;}</style></defs><title>Reflow_Frontend</title><path class="cls-1" d="M27.35,14.12V13.8a.08.08,0,0,0-.08-.08c0-.08-.08-.08-.08-.16h0L18.82,6.39V.25h-10V6.39L.41,13.56h0c-.08,0-.08.08-.08.16l-.08.08v.32h0V56a4.62,4.62,0,0,0,4.62,4.62H22.8A4.63,4.63,0,0,0,27.43,56V29.82l-.08-15.7Zm-1.6.4v6.05c-.16-.08-.32-.08-.4-.16a16.75,16.75,0,0,0-7.49-1.19,33.31,33.31,0,0,0-4.78,1,29.56,29.56,0,0,1-3.43.8,14.32,14.32,0,0,1-8-.88V14.52L9.89,7.58h7.65ZM17.07,5.91h-6.7V1.84h6.7ZM25.75,56a3,3,0,0,1-3,3h-18a3,3,0,0,1-3-3v-5.9H18.82a.76.76,0,0,0,.8-.8.75.75,0,0,0-.8-.79H1.68V40.58H18.82a.8.8,0,1,0,0-1.6H1.68V30.61H6.47a.75.75,0,0,0,.79-.79.75.75,0,0,0-.79-.8H1.68V21.85a16,16,0,0,0,5.5.95,15.43,15.43,0,0,0,2.71-.24c1.2-.23,2.39-.55,3.59-.87a30.61,30.61,0,0,1,4.54-1,16.38,16.38,0,0,1,6.78,1.12l.87.24v6.85H20.89a.76.76,0,0,0-.8.8.75.75,0,0,0,.8.79h4.78V56Z"/><path class="cls-1" d="M22.8,60.83H4.87A4.88,4.88,0,0,1,0,56V13.69l.09-.08a.31.31,0,0,1,.21-.28L8.53,6.27V0H19.07V6.27l8.37,7.17v.06l0,0a.33.33,0,0,1,.14.27v.32l.08,15.7V56A4.88,4.88,0,0,1,22.8,60.83ZM.5,13.9V56a4.37,4.37,0,0,0,4.37,4.37H22.8A4.38,4.38,0,0,0,27.18,56V29.82L27.1,14H27v-.19A.22.22,0,0,1,27,13.7l-8.4-7.2V.5H9v6l-.09.08L.58,13.78ZM22.72,59.24h-18A3.29,3.29,0,0,1,1.43,56V49.81H18.82a.55.55,0,1,0,0-1.09H1.43V40.33H18.82a.55.55,0,0,0,0-1.1H1.43V30.36h5A.49.49,0,0,0,7,29.82a.51.51,0,0,0-.54-.55h-5V21.49l.34.12a15.67,15.67,0,0,0,5.41.94,15.6,15.6,0,0,0,2.67-.23c1.19-.24,2.4-.56,3.57-.87a29.85,29.85,0,0,1,4.58-1,16.64,16.64,0,0,1,6.87,1.13l.43.12.43.11.19.05v7.3h-5a.51.51,0,0,0-.55.55.5.5,0,0,0,.55.54h5V55.71H26V56A3.28,3.28,0,0,1,22.72,59.24ZM1.93,50.31V56a2.79,2.79,0,0,0,2.78,2.78h18a2.79,2.79,0,0,0,2.77-2.53h-.07V30.78H20.89a1,1,0,1,1,0-2.09h4.53V22.28l-.25-.07-.43-.12A16.3,16.3,0,0,0,18.05,21a30.94,30.94,0,0,0-4.51.95c-1.17.31-2.38.64-3.6.88a15.65,15.65,0,0,1-2.76.24,16.27,16.27,0,0,1-5.25-.85v6.57H6.47a1,1,0,0,1,0,2.09H1.93v7.87H18.82a1,1,0,0,1,0,2.1H1.93v7.39H18.82a1,1,0,1,1,0,2.09ZM7.22,21.52A14.58,14.58,0,0,1,1.59,20.4l-.16-.06V14.4L9.8,7.33h7.84l.07.06,8.29,7V21l-.36-.18a.52.52,0,0,0-.16-.06.87.87,0,0,1-.25-.1,16.21,16.21,0,0,0-7.34-1.17,22.2,22.2,0,0,0-3.71.76l-1,.27-.4.1a26.07,26.07,0,0,1-3.05.7A14.36,14.36,0,0,1,7.22,21.52ZM1.93,20a14.21,14.21,0,0,0,7.68.79,25.6,25.6,0,0,0,3-.68L13,20l1-.27A24.92,24.92,0,0,1,17.84,19c2.74-.32,5,.33,7.59,1.21l.07,0V14.63l-8-6.8H10l-8,6.8ZM17.32,6.16h-7.2V1.59h7.2Zm-6.7-.5h6.2V2.09h-6.2Z"/><path class="cls-1" d="M10.37,13.72a.8.8,0,1,0,0,1.59h6.78a.8.8,0,0,0,0-1.59Z"/><path class="cls-1" d="M17.15,15.56H10.37a1,1,0,1,1,0-2.09h6.78a1,1,0,0,1,0,2.09ZM10.37,14a.51.51,0,0,0-.55.55.5.5,0,0,0,.55.54h6.78a.49.49,0,0,0,.54-.54.51.51,0,0,0-.54-.55Z"/></svg>