<svg id="Capa_1" data-name="Capa 1" xmlns="http://www.w3.org/2000/svg" viewBox="0 0 52.66 52.92"><defs><style>.cls-1{fill:#00244d;}</style></defs><title>Reflow_Frontend</title><path class="cls-1" d="M18.67,35.6h-10v-10h10Zm-8-2h6v-6h-6Z"/><path class="cls-1" d="M27.33,52.92H2a2,2,0,0,1-2-2V27.55a2,2,0,0,1,2-2H27.33ZM2,27.59,2,51l23.33,0V27.59Z"/><path class="cls-1" d="M44,35.6H34v-10H44Zm-8-2h6v-6H36Z"/><path class="cls-1" d="M50.7,52.92H25.33V25.59H50.7a2,2,0,0,1,2,2V51A2,2,0,0,1,50.7,52.92Zm-23.37-2H50.7l0-23.33H27.33Z"/><path class="cls-1" d="M31.33,10h-10V0h10Zm-8-2h6V2h-6Z"/><path class="cls-1" d="M40,27.33H12.67V2a2,2,0,0,1,1.95-2H38a2,2,0,0,1,2,2Zm-25.33-2H38V2H14.62Z"/></svg>