<svg id="Capa_1" data-name="Capa 1" xmlns="http://www.w3.org/2000/svg" viewBox="0 0 50.89 51.05"><defs><style>.cls-1{fill:#00244d;}</style></defs><title>Reflow_Frontend</title><path class="cls-1" d="M43.88,34.54a3.77,3.77,0,0,0,2.67,1.12h0a3.76,3.76,0,0,0,2.67-1.11l.25-.25a3.8,3.8,0,0,0,0-5.37L46.1,25.54l3.38-3.42a3.82,3.82,0,0,0,0-5.37l-.23-.24a3.79,3.79,0,0,0-5.34,0l0,0L40.5,19.91,38.56,18,42,14.59a3.82,3.82,0,0,0,0-5.38L41.71,9A3.81,3.81,0,0,0,39,7.86h0A3.8,3.8,0,0,0,36.35,9L33,12.37,31,10.43,34.41,7a3.82,3.82,0,0,0,0-5.37l-.23-.27a3.79,3.79,0,0,0-5.33,0l0,0-3.39,3.4-3.38-3.4a3.79,3.79,0,0,0-5.34,0l0,0-.22.23a3.82,3.82,0,0,0,0,5.37l3.38,3.39-1.94,1.94L14.53,9a3.79,3.79,0,0,0-5.34,0V9h0l-.22.22a3.83,3.83,0,0,0,0,5.38L12.32,18l-1.93,1.93L7,16.53a3.78,3.78,0,0,0-5.35,0l-.24.24a3.82,3.82,0,0,0,0,5.37l3.38,3.39-3.38,3.4A3.81,3.81,0,0,0,.3,31.6h0a3.82,3.82,0,0,0,1.11,2.69l.23.23a3.81,3.81,0,0,0,2.68,1.12h0A3.74,3.74,0,0,0,7,34.54l3.4-3.41,1.94,1.94L8.94,36.48a3.81,3.81,0,0,0,0,5.38l.23.23a3.77,3.77,0,0,0,2.68,1.12h0a3.76,3.76,0,0,0,2.67-1.11l3.39-3.4,1.94,1.94L16.47,44a3.82,3.82,0,0,0,0,5.37l.24.24a3.79,3.79,0,0,0,5.34,0h0l0,0,3.34-3.4,3.39,3.39a3.79,3.79,0,0,0,5.35,0l.25-.25a3.82,3.82,0,0,0,0-5.37L31,40.61,33,38.68l3.38,3.38A3.81,3.81,0,0,0,39,43.18h0a3.76,3.76,0,0,0,2.67-1.11l.24-.24a3.81,3.81,0,0,0,0-5.38l-3.38-3.39,1.94-1.94Zm4.18-4.21a1.8,1.8,0,0,1,0,2.54l-.23.23a1.84,1.84,0,0,1-2.51,0l-3.42-3.4L44.68,27ZM37.77,10.4a1.78,1.78,0,0,1,2.51,0l.23.23a1.8,1.8,0,0,1,0,2.54l-3.38,3.39-2.77-2.77Zm1.31,10.93-2.77,2.78-.1-.11-9.35-9.39,2.77-2.77.11.11Zm-17,10.32L19.33,28.9l9.46-9.52,2.77,2.78Zm3.34-.52,1.94,1.93L25.44,35l-1.93-1.94Zm-7.52-3.68L16,25.52l1.93-1.94,1.94,1.94Zm7.52-7.54L23.51,18,25.44,16,27.38,18ZM33,23.59l1.94,1.93L33,27.46,31,25.52Zm-15.1-18a1.79,1.79,0,0,1,0-2.53l.22-.24a1.79,1.79,0,0,1,2.52,0L24,6.23,21.26,9Zm1.56,8.06L30.23,2.84a1.77,1.77,0,0,1,2.5,0l.24.24a1.79,1.79,0,0,1,0,2.53L22.1,16.55l-2.77-2.78Zm-9.08-.51a1.82,1.82,0,0,1,0-2.54l.24-.23a1.8,1.8,0,0,1,2.51,0L24,21.32,21.26,24.1,21.15,24ZM2.83,20.71a1.8,1.8,0,0,1,0-2.54l.24-.24a1.8,1.8,0,0,1,2.51,0L9,21.32,6.22,24.1ZM5.59,33.1a1.83,1.83,0,0,1-2.5,0l-.24-.24a1.81,1.81,0,0,1-.21-2.29H2.59l.24-.25L13.74,19.38l.1.11,2.67,2.67-.11.11Zm7.53,7.55a1.77,1.77,0,0,1-1.25.51,1.79,1.79,0,0,1-1.26-.51l-.23-.24a1.8,1.8,0,0,1,0-2.54l3.38-3.38,2.77,2.77ZM11.8,29.71,14.58,27,24,36.42l-2.77,2.77ZM33,45.42A1.8,1.8,0,0,1,33,48l-.24.24a1.79,1.79,0,0,1-1.26.51,1.77,1.77,0,0,1-1.25-.51l-3.39-3.39L29.66,42Zm-1.56-8.05L20.66,48.2a1.79,1.79,0,0,1-2.5,0L17.88,48a1.8,1.8,0,0,1,0-2.55L28.79,34.49l2.77,2.77Zm9.08.5a1.82,1.82,0,0,1,0,2.54l-.24.24a1.77,1.77,0,0,1-2.51,0L26.86,29.71,29.63,27Zm-3.39-6.22L34.38,28.9l10.92-11a1.8,1.8,0,0,1,2.51,0l.23.24a1.8,1.8,0,0,1,0,2.54Z"/></svg>