<svg id="Capa_1" data-name="Capa 1" xmlns="http://www.w3.org/2000/svg" viewBox="0 0 29.63 54.84"><defs><style>.cls-1{fill:#00244d;}</style></defs><title>Reflow_wood</title><path class="cls-1" d="M23.85,43.7V35.9c-.74-.1-1.32,1.23-1.83.78v7c0,5.2-4.5,9.42-10,9.42S1.91,48.9,1.91,43.7V11.14A.88.88,0,0,0,1,10.28a.89.89,0,0,0-.91.86V43.7C.09,49.85,5.41,54.84,12,54.84S23.85,49.85,23.85,43.7Z"/><path class="cls-1" d="M23.85,27.37V11.14a.92.92,0,0,0-1.83,0V26.67A2.83,2.83,0,0,1,23.85,27.37Z"/><path class="cls-1" d="M7.4,36V43.7a.92.92,0,0,1-1.83,0V36A.92.92,0,0,1,7.4,36Z"/><path class="cls-1" d="M15.62,38.28v4.56a.91.91,0,0,1-1.82,0V38.28a.91.91,0,0,1,1.82,0Z"/><path class="cls-1" d="M12,25.71V36a.92.92,0,0,1-1.83,0V25.71a.92.92,0,0,1,1.83,0Z"/><path class="cls-1" d="M19.73,39.6a.79.79,0,0,1-.06-1.16l7.69-7a.91.91,0,0,1,1.23.05.78.78,0,0,1,.05,1.16l-7.68,7A.92.92,0,0,1,19.73,39.6Z"/><path class="cls-1" d="M16.66,32.63a.83.83,0,0,1,0-1.21l6.14-5.75a1,1,0,0,1,1.3,0c.35.33,1.18.12.82.46l-7,6.5A1,1,0,0,1,16.66,32.63Z"/><path class="cls-1" d="M23.85,11.14c0,6.15-5.32,11.14-11.88,11.14S.09,17.29.09,11.14,5.41,0,12,0,23.85,5,23.85,11.14Zm-21.94,0c0,5.2,4.51,9.42,10.06,9.42s10-4.22,10-9.42-4.5-9.43-10-9.43S1.91,5.93,1.91,11.14Z"/><path class="cls-1" d="M20.19,11.14A8,8,0,0,1,12,18.85a8,8,0,0,1-8.23-7.71A8,8,0,0,1,12,3.43,8,8,0,0,1,20.19,11.14Zm-14.62,0a6.22,6.22,0,0,0,6.4,6,6.22,6.22,0,0,0,6.4-6,6.22,6.22,0,0,0-6.4-6A6.22,6.22,0,0,0,5.57,11.14Z"/><path class="cls-1" d="M16.54,11.14A4.43,4.43,0,0,1,12,15.42,4.42,4.42,0,0,1,7.4,11.14,4.43,4.43,0,0,1,12,6.85,4.44,4.44,0,0,1,16.54,11.14Zm-7.31,0A2.65,2.65,0,0,0,12,13.71a2.66,2.66,0,0,0,2.74-2.57A2.66,2.66,0,0,0,12,8.57,2.65,2.65,0,0,0,9.23,11.14Z"/><path class="cls-1" d="M26.61,33.25A5.17,5.17,0,0,1,23,30.91a5,5,0,0,1-1-3.73,2.68,2.68,0,0,1,1.18-1.75c1.54-.93,3.86-.06,5.29,2a5,5,0,0,1,1,3.73,2.68,2.68,0,0,1-1.19,1.75A2.73,2.73,0,0,1,26.61,33.25Zm-1.88-6.19a.79.79,0,0,0-.46.08h0a.67.67,0,0,0-.28.45,3,3,0,0,0,.65,2.18c.89,1.28,2.14,1.69,2.6,1.41a.66.66,0,0,0,.27-.45,3,3,0,0,0-.64-2.18A3.27,3.27,0,0,0,24.73,27.06Z"/></svg>