<svg id="Capa_1" data-name="Capa 1" xmlns="http://www.w3.org/2000/svg" viewBox="0 0 55 55"><defs><style>.cls-1{fill:#00244d;}.cls-2{fill:none;stroke:#00244d;stroke-miterlimit:10;stroke-width:2px;fill-rule:evenodd;}</style></defs><title>Reflow_Workinghours</title><path class="cls-1" d="M27.5,0A27.5,27.5,0,1,0,55,27.5,27.5,27.5,0,0,0,27.5,0M41.11,49.24l-3.19-5.53-1.59.92,3.19,5.53a25.26,25.26,0,0,1-11.11,3V46.75H26.58v6.39a25.43,25.43,0,0,1-11.11-3l3.2-5.53-1.59-.92-3.19,5.53a25.89,25.89,0,0,1-8.14-8.13l5.54-3.19-.92-1.59L4.83,39.52a25.57,25.57,0,0,1-3-11.11H8.25V26.58H1.86a25.57,25.57,0,0,1,3-11.11l5.54,3.2.92-1.59L5.75,13.89a25.79,25.79,0,0,1,8.14-8.13l3.19,5.53,1.59-.92-3.2-5.54a25.57,25.57,0,0,1,11.11-3V8.25h1.83V1.86a25.57,25.57,0,0,1,11.11,3L36.33,10.4l1.59.92,3.19-5.53a25.66,25.66,0,0,1,8.13,8.13l-5.53,3.19.92,1.59,5.53-3.2a25.43,25.43,0,0,1,3,11.11H46.75v1.83h6.39a25.26,25.26,0,0,1-3,11.11l-5.53-3.19L43.69,38l5.53,3.19a25.86,25.86,0,0,1-8.13,8.13"/><path class="cls-2" d="M39.5,19.22a5.72,5.72,0,0,1-.57,5.24,6.46,6.46,0,0,1-2.08,2.08,5.74,5.74,0,0,1-5.25.57L20.83,37.88a2.61,2.61,0,0,1-3.71,0h0a2.63,2.63,0,0,1,0-3.72L27.89,23.4a5.76,5.76,0,0,1,.56-5.25,6.39,6.39,0,0,1,2.09-2.08,5.72,5.72,0,0,1,5.24-.57l-3.33,3.33v3.71h3.72Z"/></svg>